<mxfile host="app.diagrams.net" agent="Mozilla/5.0 (Windows NT 10.0; Win64; x64) AppleWebKit/537.36 (KHTML, like Gecko) Chrome/129.0.0.0 Safari/537.36 Edg/129.0.0.0" version="24.7.17">
  <diagram name="第 1 页" id="EapViMpM3_LSGZjC-JZd">
    <mxGraphModel dx="658" dy="434" grid="0" gridSize="10" guides="1" tooltips="1" connect="1" arrows="1" fold="1" page="1" pageScale="1" pageWidth="4681" pageHeight="3300" math="0" shadow="0">
      <root>
        <mxCell id="0" />
        <mxCell id="1" parent="0" />
        <mxCell id="9-hLryKSoV7Hc3_zx65K-65" style="edgeStyle=none;curved=1;rounded=0;orthogonalLoop=1;jettySize=auto;html=1;exitX=1;exitY=0.5;exitDx=0;exitDy=0;entryX=0;entryY=0;entryDx=0;entryDy=0;fontSize=12;startSize=8;endSize=8;" parent="1" source="9-hLryKSoV7Hc3_zx65K-1" target="9-hLryKSoV7Hc3_zx65K-11" edge="1">
          <mxGeometry relative="1" as="geometry" />
        </mxCell>
        <mxCell id="9-hLryKSoV7Hc3_zx65K-1" value="" style="rounded=0;whiteSpace=wrap;html=1;" parent="1" vertex="1">
          <mxGeometry x="40" y="160" width="80" height="40" as="geometry" />
        </mxCell>
        <mxCell id="9-hLryKSoV7Hc3_zx65K-2" value="task_struct" style="text;html=1;align=center;verticalAlign=middle;resizable=0;points=[];autosize=1;strokeColor=none;fillColor=none;fontSize=10;" parent="1" vertex="1">
          <mxGeometry x="45" y="130" width="70" height="30" as="geometry" />
        </mxCell>
        <mxCell id="9-hLryKSoV7Hc3_zx65K-11" value="" style="rounded=0;whiteSpace=wrap;html=1;" parent="1" vertex="1">
          <mxGeometry x="180" y="80" width="80" height="360" as="geometry" />
        </mxCell>
        <mxCell id="9-hLryKSoV7Hc3_zx65K-12" value="命令行参数环境变量" style="whiteSpace=wrap;html=1;fontSize=8;" parent="1" vertex="1">
          <mxGeometry x="180" y="140" width="80" height="20" as="geometry" />
        </mxCell>
        <mxCell id="9-hLryKSoV7Hc3_zx65K-13" value="共享区" style="whiteSpace=wrap;html=1;fontSize=10;fillColor=#f8cecc;strokeColor=#b85450;" parent="1" vertex="1">
          <mxGeometry x="180" y="240" width="80" height="30" as="geometry" />
        </mxCell>
        <mxCell id="9-hLryKSoV7Hc3_zx65K-14" value="堆" style="whiteSpace=wrap;html=1;fontSize=10;" parent="1" vertex="1">
          <mxGeometry x="180" y="320" width="80" height="30" as="geometry" />
        </mxCell>
        <mxCell id="9-hLryKSoV7Hc3_zx65K-15" value="未初始化数据" style="whiteSpace=wrap;html=1;fontSize=10;" parent="1" vertex="1">
          <mxGeometry x="180" y="350" width="80" height="20" as="geometry" />
        </mxCell>
        <mxCell id="9-hLryKSoV7Hc3_zx65K-16" value="已初始化数据" style="whiteSpace=wrap;html=1;fontSize=10;" parent="1" vertex="1">
          <mxGeometry x="180" y="370" width="80" height="20" as="geometry" />
        </mxCell>
        <mxCell id="9-hLryKSoV7Hc3_zx65K-17" value="正文代码" style="whiteSpace=wrap;html=1;fontSize=10;" parent="1" vertex="1">
          <mxGeometry x="180" y="390" width="80" height="20" as="geometry" />
        </mxCell>
        <mxCell id="9-hLryKSoV7Hc3_zx65K-18" value="栈" style="whiteSpace=wrap;html=1;fontSize=10;" parent="1" vertex="1">
          <mxGeometry x="180" y="160" width="80" height="30" as="geometry" />
        </mxCell>
        <mxCell id="9-hLryKSoV7Hc3_zx65K-19" value="mm_struct" style="text;html=1;align=center;verticalAlign=middle;resizable=0;points=[];autosize=1;strokeColor=none;fillColor=none;fontSize=10;" parent="1" vertex="1">
          <mxGeometry x="185" y="50" width="70" height="30" as="geometry" />
        </mxCell>
        <mxCell id="9-hLryKSoV7Hc3_zx65K-20" value="" style="rounded=0;whiteSpace=wrap;html=1;" parent="1" vertex="1">
          <mxGeometry x="320" y="240" width="50" height="20" as="geometry" />
        </mxCell>
        <mxCell id="9-hLryKSoV7Hc3_zx65K-35" value="" style="rounded=0;whiteSpace=wrap;html=1;" parent="1" vertex="1">
          <mxGeometry x="320" y="260" width="50" height="20" as="geometry" />
        </mxCell>
        <mxCell id="9-hLryKSoV7Hc3_zx65K-73" style="edgeStyle=none;curved=1;rounded=0;orthogonalLoop=1;jettySize=auto;html=1;exitX=0;exitY=0;exitDx=0;exitDy=0;entryX=1;entryY=0;entryDx=0;entryDy=0;fontSize=12;startSize=8;endSize=8;endArrow=none;endFill=0;" parent="1" source="9-hLryKSoV7Hc3_zx65K-36" target="9-hLryKSoV7Hc3_zx65K-13" edge="1">
          <mxGeometry relative="1" as="geometry" />
        </mxCell>
        <mxCell id="9-hLryKSoV7Hc3_zx65K-36" value="" style="rounded=0;whiteSpace=wrap;html=1;" parent="1" vertex="1">
          <mxGeometry x="320" y="280" width="50" height="20" as="geometry" />
        </mxCell>
        <mxCell id="9-hLryKSoV7Hc3_zx65K-37" value="" style="rounded=0;whiteSpace=wrap;html=1;" parent="1" vertex="1">
          <mxGeometry x="320" y="300" width="50" height="20" as="geometry" />
        </mxCell>
        <mxCell id="9-hLryKSoV7Hc3_zx65K-38" value="" style="rounded=0;whiteSpace=wrap;html=1;" parent="1" vertex="1">
          <mxGeometry x="370" y="240" width="50" height="20" as="geometry" />
        </mxCell>
        <mxCell id="9-hLryKSoV7Hc3_zx65K-72" style="edgeStyle=none;curved=1;rounded=0;orthogonalLoop=1;jettySize=auto;html=1;exitX=1;exitY=1;exitDx=0;exitDy=0;entryX=0;entryY=0.5;entryDx=0;entryDy=0;fontSize=12;startSize=8;endSize=8;endArrow=none;endFill=0;" parent="1" source="9-hLryKSoV7Hc3_zx65K-39" target="9-hLryKSoV7Hc3_zx65K-71" edge="1">
          <mxGeometry relative="1" as="geometry" />
        </mxCell>
        <mxCell id="9-hLryKSoV7Hc3_zx65K-39" value="" style="rounded=0;whiteSpace=wrap;html=1;" parent="1" vertex="1">
          <mxGeometry x="370" y="260" width="50" height="20" as="geometry" />
        </mxCell>
        <mxCell id="9-hLryKSoV7Hc3_zx65K-40" value="" style="rounded=0;whiteSpace=wrap;html=1;" parent="1" vertex="1">
          <mxGeometry x="370" y="280" width="50" height="20" as="geometry" />
        </mxCell>
        <mxCell id="9-hLryKSoV7Hc3_zx65K-41" value="" style="rounded=0;whiteSpace=wrap;html=1;" parent="1" vertex="1">
          <mxGeometry x="370" y="300" width="50" height="20" as="geometry" />
        </mxCell>
        <mxCell id="9-hLryKSoV7Hc3_zx65K-42" value="页表" style="text;html=1;align=center;verticalAlign=middle;resizable=0;points=[];autosize=1;strokeColor=none;fillColor=none;fontSize=12;" parent="1" vertex="1">
          <mxGeometry x="345" y="210" width="50" height="30" as="geometry" />
        </mxCell>
        <mxCell id="9-hLryKSoV7Hc3_zx65K-43" value="" style="rounded=0;whiteSpace=wrap;html=1;" parent="1" vertex="1">
          <mxGeometry x="480" y="120" width="80" height="280" as="geometry" />
        </mxCell>
        <mxCell id="9-hLryKSoV7Hc3_zx65K-44" value="物理内存" style="text;html=1;align=center;verticalAlign=middle;resizable=0;points=[];autosize=1;strokeColor=none;fillColor=none;fontSize=12;" parent="1" vertex="1">
          <mxGeometry x="485" y="90" width="70" height="30" as="geometry" />
        </mxCell>
        <mxCell id="9-hLryKSoV7Hc3_zx65K-45" value="" style="rounded=0;whiteSpace=wrap;html=1;" parent="1" vertex="1">
          <mxGeometry x="620" y="240" width="50" height="20" as="geometry" />
        </mxCell>
        <mxCell id="9-hLryKSoV7Hc3_zx65K-46" value="" style="rounded=0;whiteSpace=wrap;html=1;" parent="1" vertex="1">
          <mxGeometry x="620" y="260" width="50" height="20" as="geometry" />
        </mxCell>
        <mxCell id="9-hLryKSoV7Hc3_zx65K-74" style="edgeStyle=none;curved=1;rounded=0;orthogonalLoop=1;jettySize=auto;html=1;exitX=0;exitY=0;exitDx=0;exitDy=0;entryX=1;entryY=0.5;entryDx=0;entryDy=0;fontSize=12;startSize=8;endSize=8;endArrow=none;endFill=0;" parent="1" source="9-hLryKSoV7Hc3_zx65K-47" target="9-hLryKSoV7Hc3_zx65K-71" edge="1">
          <mxGeometry relative="1" as="geometry" />
        </mxCell>
        <mxCell id="9-hLryKSoV7Hc3_zx65K-47" value="" style="rounded=0;whiteSpace=wrap;html=1;" parent="1" vertex="1">
          <mxGeometry x="620" y="280" width="50" height="20" as="geometry" />
        </mxCell>
        <mxCell id="9-hLryKSoV7Hc3_zx65K-48" value="" style="rounded=0;whiteSpace=wrap;html=1;" parent="1" vertex="1">
          <mxGeometry x="620" y="300" width="50" height="20" as="geometry" />
        </mxCell>
        <mxCell id="9-hLryKSoV7Hc3_zx65K-49" value="" style="rounded=0;whiteSpace=wrap;html=1;" parent="1" vertex="1">
          <mxGeometry x="670" y="240" width="50" height="20" as="geometry" />
        </mxCell>
        <mxCell id="9-hLryKSoV7Hc3_zx65K-50" value="" style="rounded=0;whiteSpace=wrap;html=1;" parent="1" vertex="1">
          <mxGeometry x="670" y="260" width="50" height="20" as="geometry" />
        </mxCell>
        <mxCell id="9-hLryKSoV7Hc3_zx65K-75" style="edgeStyle=none;curved=1;rounded=0;orthogonalLoop=1;jettySize=auto;html=1;exitX=1;exitY=0;exitDx=0;exitDy=0;entryX=0;entryY=0;entryDx=0;entryDy=0;fontSize=12;startSize=8;endSize=8;endArrow=none;endFill=0;" parent="1" source="9-hLryKSoV7Hc3_zx65K-51" target="9-hLryKSoV7Hc3_zx65K-77" edge="1">
          <mxGeometry relative="1" as="geometry" />
        </mxCell>
        <mxCell id="9-hLryKSoV7Hc3_zx65K-51" value="" style="rounded=0;whiteSpace=wrap;html=1;" parent="1" vertex="1">
          <mxGeometry x="670" y="280" width="50" height="20" as="geometry" />
        </mxCell>
        <mxCell id="9-hLryKSoV7Hc3_zx65K-52" value="" style="rounded=0;whiteSpace=wrap;html=1;" parent="1" vertex="1">
          <mxGeometry x="670" y="300" width="50" height="20" as="geometry" />
        </mxCell>
        <mxCell id="9-hLryKSoV7Hc3_zx65K-53" value="页表" style="text;html=1;align=center;verticalAlign=middle;resizable=0;points=[];autosize=1;strokeColor=none;fillColor=none;fontSize=12;" parent="1" vertex="1">
          <mxGeometry x="645" y="210" width="50" height="30" as="geometry" />
        </mxCell>
        <mxCell id="9-hLryKSoV7Hc3_zx65K-54" value="" style="rounded=0;whiteSpace=wrap;html=1;" parent="1" vertex="1">
          <mxGeometry x="780" y="80" width="80" height="360" as="geometry" />
        </mxCell>
        <mxCell id="9-hLryKSoV7Hc3_zx65K-55" value="命令行参数环境变量" style="whiteSpace=wrap;html=1;fontSize=8;" parent="1" vertex="1">
          <mxGeometry x="780" y="140" width="80" height="20" as="geometry" />
        </mxCell>
        <mxCell id="9-hLryKSoV7Hc3_zx65K-56" value="共享区" style="whiteSpace=wrap;html=1;fontSize=10;fillColor=#f8cecc;strokeColor=#b85450;" parent="1" vertex="1">
          <mxGeometry x="780" y="240" width="80" height="30" as="geometry" />
        </mxCell>
        <mxCell id="9-hLryKSoV7Hc3_zx65K-57" value="堆" style="whiteSpace=wrap;html=1;fontSize=10;" parent="1" vertex="1">
          <mxGeometry x="780" y="320" width="80" height="30" as="geometry" />
        </mxCell>
        <mxCell id="9-hLryKSoV7Hc3_zx65K-58" value="未初始化数据" style="whiteSpace=wrap;html=1;fontSize=10;" parent="1" vertex="1">
          <mxGeometry x="780" y="350" width="80" height="20" as="geometry" />
        </mxCell>
        <mxCell id="9-hLryKSoV7Hc3_zx65K-59" value="已初始化数据" style="whiteSpace=wrap;html=1;fontSize=10;" parent="1" vertex="1">
          <mxGeometry x="780" y="370" width="80" height="20" as="geometry" />
        </mxCell>
        <mxCell id="9-hLryKSoV7Hc3_zx65K-60" value="正文代码" style="whiteSpace=wrap;html=1;fontSize=10;" parent="1" vertex="1">
          <mxGeometry x="780" y="390" width="80" height="20" as="geometry" />
        </mxCell>
        <mxCell id="9-hLryKSoV7Hc3_zx65K-61" value="栈" style="whiteSpace=wrap;html=1;fontSize=10;" parent="1" vertex="1">
          <mxGeometry x="780" y="160" width="80" height="30" as="geometry" />
        </mxCell>
        <mxCell id="9-hLryKSoV7Hc3_zx65K-62" value="mm_struct" style="text;html=1;align=center;verticalAlign=middle;resizable=0;points=[];autosize=1;strokeColor=none;fillColor=none;fontSize=10;" parent="1" vertex="1">
          <mxGeometry x="785" y="50" width="70" height="30" as="geometry" />
        </mxCell>
        <mxCell id="9-hLryKSoV7Hc3_zx65K-70" style="edgeStyle=none;curved=1;rounded=0;orthogonalLoop=1;jettySize=auto;html=1;exitX=0;exitY=0.5;exitDx=0;exitDy=0;fontSize=12;startSize=8;endSize=8;entryX=1;entryY=0;entryDx=0;entryDy=0;" parent="1" source="9-hLryKSoV7Hc3_zx65K-63" target="9-hLryKSoV7Hc3_zx65K-54" edge="1">
          <mxGeometry relative="1" as="geometry">
            <mxPoint x="870" y="80" as="targetPoint" />
          </mxGeometry>
        </mxCell>
        <mxCell id="9-hLryKSoV7Hc3_zx65K-63" value="" style="rounded=0;whiteSpace=wrap;html=1;" parent="1" vertex="1">
          <mxGeometry x="920" y="160" width="80" height="40" as="geometry" />
        </mxCell>
        <mxCell id="9-hLryKSoV7Hc3_zx65K-64" value="task_struct" style="text;html=1;align=center;verticalAlign=middle;resizable=0;points=[];autosize=1;strokeColor=none;fillColor=none;fontSize=10;" parent="1" vertex="1">
          <mxGeometry x="925" y="130" width="70" height="30" as="geometry" />
        </mxCell>
        <mxCell id="9-hLryKSoV7Hc3_zx65K-71" value="共享内存" style="whiteSpace=wrap;html=1;fillColor=#dae8fc;strokeColor=#6c8ebf;" parent="1" vertex="1">
          <mxGeometry x="480" y="180" width="80" height="40" as="geometry" />
        </mxCell>
        <mxCell id="9-hLryKSoV7Hc3_zx65K-76" value="" style="whiteSpace=wrap;html=1;fillColor=#dae8fc;strokeColor=#6c8ebf;" parent="1" vertex="1">
          <mxGeometry x="180" y="240" width="80" height="10" as="geometry" />
        </mxCell>
        <mxCell id="9-hLryKSoV7Hc3_zx65K-77" value="" style="whiteSpace=wrap;html=1;fillColor=#dae8fc;strokeColor=#6c8ebf;" parent="1" vertex="1">
          <mxGeometry x="780" y="240" width="80" height="10" as="geometry" />
        </mxCell>
        <mxCell id="FwaaF81T_8sRubU2GGHl-1" value="" style="rounded=0;whiteSpace=wrap;html=1;" vertex="1" parent="1">
          <mxGeometry x="160" y="640" width="560" height="160" as="geometry" />
        </mxCell>
        <mxCell id="FwaaF81T_8sRubU2GGHl-2" value="" style="rounded=0;whiteSpace=wrap;html=1;" vertex="1" parent="1">
          <mxGeometry x="160" y="560" width="560" height="80" as="geometry" />
        </mxCell>
        <mxCell id="FwaaF81T_8sRubU2GGHl-4" value="" style="whiteSpace=wrap;html=1;" vertex="1" parent="1">
          <mxGeometry x="200" y="610" width="40" height="60" as="geometry" />
        </mxCell>
        <mxCell id="FwaaF81T_8sRubU2GGHl-5" value="" style="whiteSpace=wrap;html=1;" vertex="1" parent="1">
          <mxGeometry x="640" y="610" width="40" height="60" as="geometry" />
        </mxCell>
        <mxCell id="FwaaF81T_8sRubU2GGHl-6" value="process A" style="text;html=1;align=center;verticalAlign=middle;resizable=0;points=[];autosize=1;strokeColor=none;fillColor=none;fontSize=12;" vertex="1" parent="1">
          <mxGeometry x="180" y="580" width="80" height="30" as="geometry" />
        </mxCell>
        <mxCell id="FwaaF81T_8sRubU2GGHl-7" value="process B" style="text;html=1;align=center;verticalAlign=middle;resizable=0;points=[];autosize=1;strokeColor=none;fillColor=none;fontSize=12;" vertex="1" parent="1">
          <mxGeometry x="620" y="580" width="80" height="30" as="geometry" />
        </mxCell>
        <mxCell id="FwaaF81T_8sRubU2GGHl-9" value="message queue" style="text;html=1;align=center;verticalAlign=middle;resizable=0;points=[];autosize=1;strokeColor=none;fillColor=none;fontSize=12;" vertex="1" parent="1">
          <mxGeometry x="385" y="690" width="110" height="30" as="geometry" />
        </mxCell>
        <mxCell id="FwaaF81T_8sRubU2GGHl-11" value="" style="whiteSpace=wrap;html=1;" vertex="1" parent="1">
          <mxGeometry x="250" y="720" width="380" height="60" as="geometry" />
        </mxCell>
        <mxCell id="FwaaF81T_8sRubU2GGHl-14" style="edgeStyle=none;curved=1;rounded=0;orthogonalLoop=1;jettySize=auto;html=1;exitX=1;exitY=0.5;exitDx=0;exitDy=0;entryX=0;entryY=0.5;entryDx=0;entryDy=0;fontSize=12;startSize=8;endSize=8;endArrow=open;endFill=0;" edge="1" parent="1" source="FwaaF81T_8sRubU2GGHl-12" target="FwaaF81T_8sRubU2GGHl-13">
          <mxGeometry relative="1" as="geometry" />
        </mxCell>
        <mxCell id="FwaaF81T_8sRubU2GGHl-12" value="" style="whiteSpace=wrap;html=1;" vertex="1" parent="1">
          <mxGeometry x="270" y="735" width="30" height="30" as="geometry" />
        </mxCell>
        <mxCell id="FwaaF81T_8sRubU2GGHl-13" value="" style="whiteSpace=wrap;html=1;" vertex="1" parent="1">
          <mxGeometry x="320" y="735" width="30" height="30" as="geometry" />
        </mxCell>
        <mxCell id="FwaaF81T_8sRubU2GGHl-15" style="edgeStyle=none;curved=1;rounded=0;orthogonalLoop=1;jettySize=auto;html=1;exitX=1;exitY=0.5;exitDx=0;exitDy=0;entryX=0;entryY=0.5;entryDx=0;entryDy=0;fontSize=12;startSize=8;endSize=8;endArrow=open;endFill=0;" edge="1" target="FwaaF81T_8sRubU2GGHl-16" parent="1">
          <mxGeometry relative="1" as="geometry">
            <mxPoint x="350" y="750" as="sourcePoint" />
          </mxGeometry>
        </mxCell>
        <mxCell id="FwaaF81T_8sRubU2GGHl-16" value="" style="whiteSpace=wrap;html=1;" vertex="1" parent="1">
          <mxGeometry x="370" y="735" width="30" height="30" as="geometry" />
        </mxCell>
        <mxCell id="FwaaF81T_8sRubU2GGHl-17" style="edgeStyle=none;curved=1;rounded=0;orthogonalLoop=1;jettySize=auto;html=1;exitX=1;exitY=0.5;exitDx=0;exitDy=0;entryX=0;entryY=0.5;entryDx=0;entryDy=0;fontSize=12;startSize=8;endSize=8;endArrow=open;endFill=0;" edge="1" target="FwaaF81T_8sRubU2GGHl-18" parent="1">
          <mxGeometry relative="1" as="geometry">
            <mxPoint x="400" y="750" as="sourcePoint" />
          </mxGeometry>
        </mxCell>
        <mxCell id="FwaaF81T_8sRubU2GGHl-18" value="" style="whiteSpace=wrap;html=1;" vertex="1" parent="1">
          <mxGeometry x="420" y="735" width="30" height="30" as="geometry" />
        </mxCell>
        <mxCell id="FwaaF81T_8sRubU2GGHl-19" style="edgeStyle=none;curved=1;rounded=0;orthogonalLoop=1;jettySize=auto;html=1;exitX=1;exitY=0.5;exitDx=0;exitDy=0;entryX=0;entryY=0.5;entryDx=0;entryDy=0;fontSize=12;startSize=8;endSize=8;endArrow=open;endFill=0;" edge="1" target="FwaaF81T_8sRubU2GGHl-20" parent="1">
          <mxGeometry relative="1" as="geometry">
            <mxPoint x="450" y="750" as="sourcePoint" />
          </mxGeometry>
        </mxCell>
        <mxCell id="FwaaF81T_8sRubU2GGHl-20" value="" style="whiteSpace=wrap;html=1;" vertex="1" parent="1">
          <mxGeometry x="470" y="735" width="30" height="30" as="geometry" />
        </mxCell>
        <mxCell id="FwaaF81T_8sRubU2GGHl-21" style="edgeStyle=none;curved=1;rounded=0;orthogonalLoop=1;jettySize=auto;html=1;exitX=1;exitY=0.5;exitDx=0;exitDy=0;entryX=0;entryY=0.5;entryDx=0;entryDy=0;fontSize=12;startSize=8;endSize=8;endArrow=open;endFill=0;" edge="1" target="FwaaF81T_8sRubU2GGHl-22" parent="1">
          <mxGeometry relative="1" as="geometry">
            <mxPoint x="500" y="750" as="sourcePoint" />
          </mxGeometry>
        </mxCell>
        <mxCell id="FwaaF81T_8sRubU2GGHl-22" value="" style="whiteSpace=wrap;html=1;" vertex="1" parent="1">
          <mxGeometry x="520" y="735" width="30" height="30" as="geometry" />
        </mxCell>
        <mxCell id="FwaaF81T_8sRubU2GGHl-23" style="edgeStyle=none;curved=1;rounded=0;orthogonalLoop=1;jettySize=auto;html=1;exitX=1;exitY=0.5;exitDx=0;exitDy=0;entryX=0;entryY=0.5;entryDx=0;entryDy=0;fontSize=12;startSize=8;endSize=8;endArrow=open;endFill=0;" edge="1" target="FwaaF81T_8sRubU2GGHl-24" parent="1">
          <mxGeometry relative="1" as="geometry">
            <mxPoint x="550" y="750" as="sourcePoint" />
          </mxGeometry>
        </mxCell>
        <mxCell id="FwaaF81T_8sRubU2GGHl-24" value="" style="whiteSpace=wrap;html=1;" vertex="1" parent="1">
          <mxGeometry x="570" y="735" width="30" height="30" as="geometry" />
        </mxCell>
        <mxCell id="FwaaF81T_8sRubU2GGHl-27" style="edgeStyle=orthogonalEdgeStyle;curved=1;rounded=0;orthogonalLoop=1;jettySize=auto;html=1;exitX=0;exitY=1;exitDx=0;exitDy=0;entryX=0;entryY=0.5;entryDx=0;entryDy=0;fontSize=12;startSize=8;endSize=8;" edge="1" parent="1" source="FwaaF81T_8sRubU2GGHl-4" target="FwaaF81T_8sRubU2GGHl-11">
          <mxGeometry relative="1" as="geometry" />
        </mxCell>
        <mxCell id="FwaaF81T_8sRubU2GGHl-29" style="edgeStyle=orthogonalEdgeStyle;curved=1;rounded=0;orthogonalLoop=1;jettySize=auto;html=1;exitX=1;exitY=1;exitDx=0;exitDy=0;entryX=1;entryY=0.5;entryDx=0;entryDy=0;fontSize=12;startSize=8;endSize=8;" edge="1" parent="1" source="FwaaF81T_8sRubU2GGHl-4" target="FwaaF81T_8sRubU2GGHl-11">
          <mxGeometry relative="1" as="geometry" />
        </mxCell>
        <mxCell id="FwaaF81T_8sRubU2GGHl-28" style="edgeStyle=orthogonalEdgeStyle;curved=1;rounded=0;orthogonalLoop=1;jettySize=auto;html=1;exitX=0;exitY=1;exitDx=0;exitDy=0;fontSize=12;startSize=8;endSize=8;" edge="1" parent="1" source="FwaaF81T_8sRubU2GGHl-5">
          <mxGeometry relative="1" as="geometry">
            <mxPoint x="250" y="750" as="targetPoint" />
          </mxGeometry>
        </mxCell>
        <mxCell id="FwaaF81T_8sRubU2GGHl-30" style="edgeStyle=orthogonalEdgeStyle;curved=1;rounded=0;orthogonalLoop=1;jettySize=auto;html=1;exitX=1;exitY=1;exitDx=0;exitDy=0;fontSize=12;startSize=8;endSize=8;" edge="1" parent="1" source="FwaaF81T_8sRubU2GGHl-5">
          <mxGeometry relative="1" as="geometry">
            <mxPoint x="630" y="750" as="targetPoint" />
          </mxGeometry>
        </mxCell>
        <mxCell id="FwaaF81T_8sRubU2GGHl-31" value="用户层" style="text;html=1;align=center;verticalAlign=middle;resizable=0;points=[];autosize=1;strokeColor=none;fillColor=none;fontSize=13;" vertex="1" parent="1">
          <mxGeometry x="95" y="585" width="60" height="30" as="geometry" />
        </mxCell>
        <mxCell id="FwaaF81T_8sRubU2GGHl-32" value="内核层" style="text;html=1;align=center;verticalAlign=middle;resizable=0;points=[];autosize=1;strokeColor=none;fillColor=none;fontSize=13;" vertex="1" parent="1">
          <mxGeometry x="95" y="705" width="60" height="30" as="geometry" />
        </mxCell>
      </root>
    </mxGraphModel>
  </diagram>
</mxfile>
